<svg xmlns="http://www.w3.org/2000/svg" xmlns:xlink="http://www.w3.org/1999/xlink" width="40" height="40" viewBox="0 0 40 40">
  <defs>
    <clipPath id="clip-path">
      <rect id="長方形_80" data-name="長方形 80" width="40" height="40" fill="none"/>
    </clipPath>
  </defs>
  <g id="グループ_23" data-name="グループ 23" transform="translate(40 40) rotate(180)">
    <g id="グループ_21" data-name="グループ 21" clip-path="url(#clip-path)">
      <path id="パス_46" data-name="パス 46" d="M20,0h0A20,20,0,1,0,40,20,20,20,0,0,0,20,0m5.739,21.844L17.785,29.8a2.493,2.493,0,0,1-3.524-3.528L20.535,20l-6.274-6.269A2.493,2.493,0,0,1,17.785,10.2l7.954,7.954A2.483,2.483,0,0,1,26.467,20v.08a2.5,2.5,0,0,1-.728,1.764" fill="#42b883"/>
    </g>
  </g>
</svg>
