<svg xmlns="http://www.w3.org/2000/svg" width="25.92" height="24.72" viewBox="0 0 25.92 24.72">
  <path id="パス_99" data-name="パス 99" d="M1.35-11.31a11.815,11.815,0,0,1,.93-4.7,11.716,11.716,0,0,1,2.58-3.8,11.788,11.788,0,0,1,3.945-2.535,13.533,13.533,0,0,1,5.055-.915,13.566,13.566,0,0,1,5.04.915A11.921,11.921,0,0,1,22.875-19.8a11.6,11.6,0,0,1,2.595,3.8,11.815,11.815,0,0,1,.93,4.7,12.129,12.129,0,0,1-.765,4.35,10.96,10.96,0,0,1-2.2,3.57L27.27.63l-5.4.84L19.8-.66A14.917,14.917,0,0,1,17,.285,13.818,13.818,0,0,1,13.86.63,13.533,13.533,0,0,1,8.805-.285,11.789,11.789,0,0,1,4.86-2.82a11.716,11.716,0,0,1-2.58-3.8A11.815,11.815,0,0,1,1.35-11.31Zm6.15,0a6.027,6.027,0,0,0,.51,2.49A6.3,6.3,0,0,0,9.39-6.84a6.238,6.238,0,0,0,2.025,1.305,6.485,6.485,0,0,0,2.445.465,6.918,6.918,0,0,0,1.56-.18L12.06-8.79l5.55-.69,1.56,1.65a5.8,5.8,0,0,0,1.08-3.48,6.027,6.027,0,0,0-.51-2.49,6.179,6.179,0,0,0-1.395-1.98,6.413,6.413,0,0,0-2.04-1.305,6.485,6.485,0,0,0-2.445-.465,6.485,6.485,0,0,0-2.445.465A6.238,6.238,0,0,0,9.39-15.78,6.3,6.3,0,0,0,8.01-13.8,6.027,6.027,0,0,0,7.5-11.31Z" transform="translate(-1.35 23.25)" fill="#42b883"/>
</svg>
