<svg xmlns="http://www.w3.org/2000/svg" width="902.733" height="208.323" viewBox="0 0 902.733 208.323">
  <path id="パス_99" data-name="パス 99" d="M68.269-95.518c4.981-18.752,9.962-41.313,14.65-61.237h1.172c4.981,19.924,9.962,42.485,14.943,61.237l4.1,16.408H64.167ZM-2.344,0H44.243L55.377-43.95h56.549L123.06,0h48.052L111.633-190.743h-54.5ZM231.177,3.516c19.631,0,33.4-9.083,45.415-23.44h1.172L280.987,0H317.9V-145.621H272.49V-50.1c-7.911,10.841-14.064,14.943-24.319,14.943-11.72,0-16.994-5.86-16.994-26.077v-84.384H185.762v90.244C185.762-19.045,199.24,3.516,231.177,3.516Zm180.781,0a91.885,91.885,0,0,0,33.109-5.86l-7.032-31.644a39.445,39.445,0,0,1-13.478,2.051c-10.841,0-18.459-6.153-18.459-22.561v-55.67h34.281v-35.453H406.1v-44.536h-37.5l-5.274,44.536-22.268,1.465v33.988h19.631v56.256C360.683-19.631,375.626,3.516,411.958,3.516ZM468.507,0h45.122V-97.569c9.083-8.2,15.236-13.185,25.491-13.185,11.72,0,16.994,6.153,16.994,26.37V0h45.415V-90.244c0-36.332-13.478-58.893-45.122-58.893-19.924,0-33.988,9.962-44.829,19.631l2.051-26.077v-49.224H468.507Zm231.47,3.516c37.211,0,71.492-28.128,71.492-76.473s-34.281-76.18-71.492-76.18c-36.918,0-71.2,27.835-71.2,76.18S663.059,3.516,699.977,3.516Zm0-36.625c-16.994,0-24.9-15.529-24.9-39.848,0-24.026,7.911-39.848,24.9-39.848s24.905,15.822,24.905,39.848C724.882-48.638,716.971-33.109,699.977-33.109ZM800.183,0H845.3V-83.212c7.618-19.338,20.8-26.37,31.644-26.37a58.1,58.1,0,0,1,14.943,1.758l8.5-38.383c-4.1-2.051-9.083-2.93-17.58-2.93-14.65,0-30.765,9.083-41.313,28.714h-1.172l-3.223-25.2H800.183Z" transform="translate(2.344 204.807)" fill="#1c2d41"/>
</svg>
