<svg xmlns="http://www.w3.org/2000/svg" width="709.275" height="228.486" viewBox="0 0 709.275 228.486">
  <path id="パス_99" data-name="パス 99" d="M11.025,0H33.957V-31.752H45.276c20.139,0,37.632-10,37.632-32.928,0-23.52-17.2-31.017-38.22-31.017H11.025ZM33.957-49.833V-77.616h9.408c11.172,0,17.2,3.381,17.2,12.936S55.272-49.833,43.953-49.833ZM97.461,0H120.1V-41.748c3.822-9.7,10.437-13.23,15.876-13.23a29.149,29.149,0,0,1,7.5.882l4.263-19.257c-2.058-1.029-4.557-1.47-8.82-1.47-7.35,0-15.435,4.557-20.727,14.406H117.6l-1.617-12.642H97.461Zm89.67,1.764C205.8,1.764,223-12.348,223-36.6s-17.2-38.22-35.868-38.22c-18.522,0-35.721,13.965-35.721,38.22S168.609,1.764,187.131,1.764Zm0-18.375c-8.526,0-12.495-7.791-12.495-19.992,0-12.054,3.969-19.992,12.495-19.992s12.5,7.938,12.5,19.992C199.626-24.4,195.657-16.611,187.131-16.611Zm76.44,18.375c6.909,0,14.112-3.675,19.257-8.82h.441L284.886,0h18.669V-102.753H280.77V-78.2l.735,10.878c-4.7-4.557-9.555-7.5-17.64-7.5-15.141,0-30.135,14.406-30.135,38.22S245.49,1.764,263.571,1.764ZM269.6-16.905c-7.791,0-12.495-5.88-12.495-19.845,0-13.671,5.733-19.551,12.2-19.551a17.439,17.439,0,0,1,11.466,4.263v29.106C277.389-18.375,274.008-16.905,269.6-16.905ZM343.98,1.764c9.849,0,16.758-4.557,22.785-11.76h.588L368.97,0h18.522V-73.059H364.707v47.922c-3.969,5.439-7.056,7.5-12.2,7.5-5.88,0-8.526-2.94-8.526-13.083V-73.059H321.2v45.276C321.2-9.555,327.957,1.764,343.98,1.764Zm94.227,0c7.791,0,17.052-2.205,24.108-8.673l-8.82-14.259a20.457,20.457,0,0,1-12.642,4.557c-8.967,0-15.729-7.791-15.729-19.992,0-12.054,6.321-19.992,16.464-19.992,3.234,0,6.027,1.029,9.408,3.528L461.58-67.032a31.463,31.463,0,0,0-21.315-7.791c-20.286,0-38.367,13.965-38.367,38.22S417.627,1.764,438.207,1.764Zm63.945,0a46.1,46.1,0,0,0,16.611-2.94l-3.528-15.876a19.789,19.789,0,0,1-6.762,1.029c-5.439,0-9.261-3.087-9.261-11.319v-27.93h17.2V-73.059h-17.2V-95.4H480.4L477.75-73.059l-11.172.735v17.052h9.849v28.224C476.427-9.849,483.924,1.764,502.152,1.764ZM530.523,0h22.638V-73.059H530.523Zm11.319-83.349c7.5,0,12.789-4.557,12.789-11.76,0-7.056-5.292-11.613-12.789-11.613s-12.789,4.557-12.789,11.613C529.053-87.906,534.345-83.349,541.842-83.349ZM603.288,1.764c18.669,0,35.868-14.112,35.868-38.367s-17.2-38.22-35.868-38.22c-18.522,0-35.721,13.965-35.721,38.22S584.766,1.764,603.288,1.764Zm0-18.375c-8.526,0-12.5-7.791-12.5-19.992,0-12.054,3.969-19.992,12.5-19.992s12.495,7.938,12.495,19.992C615.783-24.4,611.814-16.611,603.288-16.611ZM653.562,0H676.2V-48.951c4.557-4.116,7.644-6.615,12.789-6.615,5.88,0,8.526,3.087,8.526,13.23V0H720.3V-45.276c0-18.228-6.762-29.547-22.638-29.547-10,0-17.346,5-23.373,10.878H673.7l-1.617-9.114H653.562ZM11.025,120H32.781V87.807c0-11.466-1.764-24.7-2.94-35.28h.588c2.94,7.5,6.027,15.141,9.261,21.609L63.357,120h23.52V24.3H65.268V56.5c0,11.319,1.764,24.99,2.94,35.28H67.62a227.171,227.171,0,0,0-9.408-21.609L34.692,24.3H11.025Zm127.89,1.764c18.669,0,35.868-14.112,35.868-38.367s-17.2-38.22-35.868-38.22c-18.522,0-35.721,13.965-35.721,38.22S120.393,121.764,138.915,121.764Zm0-18.375c-8.526,0-12.5-7.791-12.5-19.992,0-12.054,3.969-19.992,12.5-19.992S151.41,71.343,151.41,83.4C151.41,95.6,147.441,103.389,138.915,103.389Zm74.823,18.375a46.1,46.1,0,0,0,16.611-2.94l-3.528-15.876a19.79,19.79,0,0,1-6.762,1.029c-5.439,0-9.261-3.087-9.261-11.319V64.728H228V46.941H210.8V24.6H191.982l-2.646,22.344-11.172.735V64.728h9.849V92.952C188.013,110.151,195.51,121.764,213.738,121.764Zm58.506,0a47.1,47.1,0,0,0,26.313-8.232l-7.35-13.671a31.711,31.711,0,0,1-15.729,4.557c-9.261,0-16.17-4.263-18.228-14.112h43.071a53.021,53.021,0,0,0,.882-10c0-19.845-10.29-35.133-31.458-35.133-17.493,0-34.545,14.553-34.545,38.22C235.2,107.8,251.37,121.764,272.244,121.764ZM256.956,75.018c1.47-8.526,6.909-12.642,13.377-12.642,8.232,0,11.466,5.439,11.466,12.642Z" transform="translate(-11.025 106.722)" fill="#e0fceb"/>
</svg>
