<svg xmlns="http://www.w3.org/2000/svg" width="674.193" height="248.171" viewBox="0 0 674.193 248.171">
  <path id="パス_100" data-name="パス 100" d="M-584.535-33.695c-24.905,0-40.727-22.854-40.727-62.409,0-37.211,15.822-58.893,40.727-58.893,25.2,0,40.727,21.682,40.727,58.893C-543.808-56.549-559.337-33.695-584.535-33.695Zm63.581,87.607c15.236,0,27.249-2.93,34.574-6.739l-7.911-32.523a75.417,75.417,0,0,1-21.389,2.93c-15.822,0-32.816-4.688-41.606-17.873,36.625-11.134,60.065-45.122,60.065-95.811,0-62.409-35.453-98.155-87.314-98.155s-87.314,35.453-87.314,98.155c0,53.619,26.37,88.779,66.511,97.569C-591.274,31.937-562.56,53.912-520.954,53.912Zm163.2-197.775c0-13.185,7.325-20.51,16.408-20.51,8.5,0,12.6,5.274,12.6,13.771,0,12.306-9.962,20.51-23.147,28.128C-355.7-129.8-357.753-137.124-357.753-143.863Zm3.809,147.379c24.319,0,44.243-7.032,60.358-19.045,16.7,9.669,33.7,16.115,49.81,19.045l10.841-36.625c-9.669-1.465-21.1-5.567-32.816-11.427a203.446,203.446,0,0,0,31.644-63.874h-41.02a128.912,128.912,0,0,1-21.682,44.536A248.37,248.37,0,0,1-333.727-96.4c19.924-13.478,39.555-29.007,39.555-54.205,0-26.37-18.752-43.657-48.052-43.657-32.523,0-53.033,23.147-53.033,50.4,0,12.013,4.1,25.491,11.427,39.262C-402-93.174-418.111-77.938-418.111-51.275-418.111-21.975-396.429,3.516-353.944,3.516Zm-21.389-57.428c0-8.2,4.688-14.943,11.72-21.389a258.26,258.26,0,0,0,38.09,37.8c-7.618,4.1-15.236,6.446-22.561,6.446C-364.492-31.058-375.333-40.434-375.333-53.912ZM-100.5-95.518c4.981-18.752,9.962-41.313,14.65-61.237h1.172c4.981,19.924,9.962,42.485,14.943,61.237l4.1,16.408H-104.6ZM-171.112,0h46.587l11.134-43.95h56.549L-45.708,0H2.344L-57.135-190.743h-54.5Z" transform="translate(671.849 194.259)" fill="#f2ffc9"/>
</svg>
