<svg xmlns="http://www.w3.org/2000/svg" viewBox="0 0 784.07 269.56"><defs><style>.cls-1{fill:#e8fff4;}</style></defs><g id="レイヤー_2" data-name="レイヤー 2"><g id="レイヤー_1-2" data-name="レイヤー 1"><path id="パス_99" data-name="パス 99" class="cls-1" d="M56,212.72h54.79L169.06,22H122.77L99.91,109c-5.27,20.8-9.37,40.14-14.94,60.94H83.8c-5.57-20.8-9.67-40.14-14.94-60.94L48.06,22H0Zm164.38,3.51c19.63,0,33.4-9.08,45.41-23.44h1.17l3.22,19.93h36.92V67.1H261.64v95.52c-7.91,10.84-14.06,14.94-24.32,14.94-11.72,0-17-5.86-17-26.08V67.1H174.92v90.24C174.92,193.67,188.4,216.23,220.34,216.23Zm189.27,0c17.29,0,37.22-5.56,52.45-16.4l-14.65-27.25c-10.25,5.86-20.8,9.08-31.35,9.08-18.46,0-32.23-8.5-36.33-28.13h85.85a105.62,105.62,0,0,0,1.75-19.92c0-39.56-20.51-70-62.7-70-34.86,0-68.85,29-68.85,76.18,0,48.64,32.23,76.47,73.83,76.47Zm-30.47-93.17c2.93-17,13.77-25.2,26.67-25.2,16.4,0,22.85,10.84,22.85,25.2Zm143.57,93.17c15.53,0,27.25-12.3,27.25-28.12S538.24,160,522.71,160s-27,12.3-27,28.13S507.18,216.23,522.71,216.23Zm66.8,53.33c41,0,53.33-27.83,53.33-60.06V67.1H597.43V211c0,16.12-3.81,22.85-15.24,22.85a39.67,39.67,0,0,1-11.13-1.75l-7.92,33.4c6.16,2.34,13.78,4.1,26.38,4.1Zm30.77-223c14.94,0,25.49-9.09,25.49-23.44C645.77,9.08,635.22,0,620.28,0s-25.49,9.08-25.49,23.15c0,14.35,10.55,23.44,25.49,23.44ZM723.42,216.23c39.55,0,60.65-20.8,60.65-47.46,0-24-17.58-37.21-39.85-44.24-18.46-5.86-26.66-9.38-26.66-17,0-6.44,5-10.55,15.53-10.55,10,0,20.8,2.93,31.35,10.55L783.77,82a81.3,81.3,0,0,0-52.15-18.46c-34,0-56.26,18.46-56.26,46,0,22.56,17.59,35.75,38.39,43.37,15.53,5.86,27.83,9.66,27.83,18.45,0,7-5,11.43-17.28,11.43-11.43,0-24.62-3.51-38.09-14.06l-19.05,25.49C681.81,208.62,704.08,216.23,723.42,216.23Z"/></g></g></svg>