<svg xmlns="http://www.w3.org/2000/svg" width="779.087" height="208.323" viewBox="0 0 779.087 208.323">
  <path id="パス_100" data-name="パス 100" d="M68.269-95.518c4.981-18.752,9.962-41.313,14.65-61.237h1.172c4.981,19.924,9.962,42.485,14.943,61.237l4.1,16.408H64.167ZM-2.344,0H44.243L55.377-43.95h56.549L123.06,0h48.052L111.633-190.743h-54.5ZM265.165,3.516c31.351,0,60.944-28.714,60.944-78.817,0-44.829-21.975-73.836-57.135-73.836-13.478,0-26.663,5.86-37.5,15.529l.879-21.975v-49.224H187.227V0H222.68L226.2-15.529h1.172C238.8-2.93,251.98,3.516,265.165,3.516ZM254.324-33.695a32.235,32.235,0,0,1-21.975-8.5V-99.913c7.911-8.5,14.943-12.306,23.44-12.306,16.115,0,23.733,12.013,23.733,37.5C279.522-45.122,268.388-33.695,254.324-33.695ZM418.7,3.516c37.211,0,71.492-28.128,71.492-76.473s-34.281-76.18-71.492-76.18c-36.918,0-71.2,27.835-71.2,76.18S381.779,3.516,418.7,3.516Zm0-36.625c-16.994,0-24.9-15.529-24.9-39.848,0-24.026,7.911-39.848,24.9-39.848s24.9,15.822,24.9,39.848C443.6-48.638,435.691-33.109,418.7-33.109ZM562.853,3.516c19.631,0,33.4-9.083,45.415-23.44h1.172L612.663,0h36.918V-145.621H604.166V-50.1C596.255-39.262,590.1-35.16,579.847-35.16c-11.72,0-16.994-5.86-16.994-26.077v-84.384H517.438v90.244C517.438-19.045,530.916,3.516,562.853,3.516Zm180.781,0a91.885,91.885,0,0,0,33.109-5.86l-7.032-31.644a39.445,39.445,0,0,1-13.478,2.051c-10.841,0-18.459-6.153-18.459-22.561v-55.67h34.281v-35.453H737.774v-44.536h-37.5L695-145.621l-22.268,1.465v33.988h19.631v56.256C692.359-19.631,707.3,3.516,743.634,3.516Z" transform="translate(2.344 204.807)" fill="#5cbf93"/>
</svg>
