<svg xmlns="http://www.w3.org/2000/svg" width="35.074" height="34" viewBox="0 0 35.074 34">
  <g id="icon" transform="translate(0.031)">
    <path id="パス_66" data-name="パス 66" d="M7.095,2.4,2.3,29.98h8.758l-.793,4.557H31.7L35.745,12.9,30.554,6.64,27.78,6.6l.832-4.2Z" transform="translate(-1.407 -1.449)" fill="#fff"/>
    <path id="パス_67" data-name="パス 67" d="M34.893,10.739,29.741,4.557h0c-.04,0-.04-.04-.079-.04-.04-.04-.119-.079-.159-.119a.747.747,0,0,0-.317-.079H27.522L28.156.832A.66.66,0,0,0,27.483,0H5.886A1.051,1.051,0,0,0,4.9.832L-.019,28.769a.677.677,0,0,0,.674.832H8.62l-.634,3.566A.677.677,0,0,0,8.66,34H30.177a1.051,1.051,0,0,0,.991-.832l3.844-21.834A.622.622,0,0,0,34.893,10.739Zm-5.35-3.606L32.872,11.1H28.83ZM1.8,27.937,6.441,1.664H26.373L25.9,4.319H13.93a1.051,1.051,0,0,0-.991.832l-4,22.786Zm8,4.4L14.445,5.984H28.117l-1.07,5.944a.677.677,0,0,0,.674.832H33.11L29.7,32.336Z" fill="#42b883"/>
    <path id="パス_68" data-name="パス 68" d="M40.108,21.064H45.1a1.051,1.051,0,0,0,.991-.832.677.677,0,0,0-.674-.832H40.386a1.051,1.051,0,0,0-.991.832A.722.722,0,0,0,40.108,21.064Z" transform="translate(-23.8 -11.712)" fill="#42b883"/>
    <path id="パス_69" data-name="パス 69" d="M38.608,29.664h8.124a1.051,1.051,0,0,0,.991-.832A.677.677,0,0,0,47.049,28H38.886a1.051,1.051,0,0,0-.991.832A.722.722,0,0,0,38.608,29.664Z" transform="translate(-22.895 -16.904)" fill="#42b883"/>
    <path id="パス_70" data-name="パス 70" d="M37.355,36.864h8.124a1.051,1.051,0,0,0,.991-.832A.677.677,0,0,0,45.8,35.2H37.672a1.051,1.051,0,0,0-.991.832A.677.677,0,0,0,37.355,36.864Z" transform="translate(-22.157 -21.251)" fill="#42b883"/>
    <path id="パス_71" data-name="パス 71" d="M36.038,44.264h8.124a1.051,1.051,0,0,0,.991-.832.66.66,0,0,0-.674-.832H36.355a1.051,1.051,0,0,0-.991.832A.66.66,0,0,0,36.038,44.264Z" transform="translate(-21.355 -25.719)" fill="#42b883"/>
    <path id="パス_72" data-name="パス 72" d="M34.738,51.564h8.124a1.051,1.051,0,0,0,.991-.832.66.66,0,0,0-.674-.832H35.055a1.051,1.051,0,0,0-.991.832A.66.66,0,0,0,34.738,51.564Z" transform="translate(-20.57 -30.126)" fill="#42b883"/>
    <path id="パス_73" data-name="パス 73" d="M33.438,58.964h8.124a1.051,1.051,0,0,0,.991-.832.66.66,0,0,0-.674-.832H33.755a1.051,1.051,0,0,0-.991.832A.66.66,0,0,0,33.438,58.964Z" transform="translate(-19.786 -34.594)" fill="#42b883"/>
    <path id="パス_74" data-name="パス 74" d="M47.293,64.6H32.472a1.051,1.051,0,0,0-.991.832.677.677,0,0,0,.674.832H46.976a1.051,1.051,0,0,0,.991-.832A.693.693,0,0,0,47.293,64.6Z" transform="translate(-19.017 -39.001)" fill="#42b883"/>
    <path id="パス_75" data-name="パス 75" d="M39.3,72H31.172a1.051,1.051,0,0,0-.991.832.677.677,0,0,0,.674.832h8.124a1.051,1.051,0,0,0,.991-.832A.66.66,0,0,0,39.3,72Z" transform="translate(-18.233 -43.469)" fill="#42b883"/>
  </g>
</svg>
