<svg xmlns="http://www.w3.org/2000/svg" xmlns:xlink="http://www.w3.org/1999/xlink" width="433.563" height="78.041" viewBox="0 0 433.563 78.041">
  <defs>
    <clipPath id="clip-path">
      <rect id="長方形_95" data-name="長方形 95" width="433.563" height="78.041" fill="none"/>
    </clipPath>
  </defs>
  <g id="グループ_33" data-name="グループ 33" transform="translate(0 0)">
    <path id="パス_78" data-name="パス 78" d="M123.713,23.5,111.207,43.539,98.7,23.5H95.934V53.481h5.813V38.733L111.183,53.5l9.436-14.763V53.481h5.814V23.5Z" transform="translate(1.186 0.29)" fill="#222325"/>
    <g id="グループ_32" data-name="グループ 32" transform="translate(0 0)">
      <g id="グループ_31" data-name="グループ 31" clip-path="url(#clip-path)">
        <path id="パス_79" data-name="パス 79" d="M159.6,27.89a16.77,16.77,0,0,0-22.625,0,14.411,14.411,0,0,0-4.646,10.839,14.405,14.405,0,0,0,4.646,10.838,16.772,16.772,0,0,0,22.625,0A14.344,14.344,0,0,0,164.3,38.73,14.341,14.341,0,0,0,159.6,27.89M148.338,48.539a10.059,10.059,0,0,1-7.288-2.792,9.477,9.477,0,0,1-2.866-7.058,9.357,9.357,0,0,1,2.865-6.994,10.88,10.88,0,0,1,14.535.021,9.31,9.31,0,0,1,2.908,6.973,9.433,9.433,0,0,1-2.886,7.056,10.072,10.072,0,0,1-7.268,2.794" transform="translate(1.636 0.291)" fill="#222325"/>
        <path id="パス_80" data-name="パス 80" d="M190.827,23.979V42.761L172.513,23.623,172.4,23.5h-2.322V53.482h5.814V34.656l18.36,19.18.118.124h2.275V23.979Z" transform="translate(2.102 0.291)" fill="#222325"/>
        <path id="パス_81" data-name="パス 81" d="M223.453,40.3a18.044,18.044,0,0,0-5.765-3.571l-3.5-1.477a16.369,16.369,0,0,1-3.279-1.779,2.327,2.327,0,0,1-.848-1.968,2.516,2.516,0,0,1,1.2-2.271A5.657,5.657,0,0,1,214.4,28.4a7.321,7.321,0,0,1,6.261,3.318l.232.323,4.129-2.923-.192-.3a11.208,11.208,0,0,0-4.268-3.857A12.928,12.928,0,0,0,214.4,23.5a11.711,11.711,0,0,0-7.257,2.238,7.137,7.137,0,0,0-2.994,5.937,6.64,6.64,0,0,0,2.033,4.929,17.407,17.407,0,0,0,5.5,3.387l3.459,1.479a15.175,15.175,0,0,1,3.434,1.861,2.544,2.544,0,0,1,.925,2.1,3.045,3.045,0,0,1-1.334,2.614,6.12,6.12,0,0,1-3.671,1.011c-3.012,0-5.661-1.486-7.878-4.414l-.232-.307-4.165,2.909.184.3a13.115,13.115,0,0,0,5.027,4.706,14.826,14.826,0,0,0,7.113,1.7,12.372,12.372,0,0,0,7.755-2.369,7.642,7.642,0,0,0,3.113-6.33,6.817,6.817,0,0,0-1.96-4.966" transform="translate(2.499 0.291)" fill="#222325"/>
        <path id="パス_82" data-name="パス 82" d="M229.91,23.974v4.9h10.519v24.6h5.815v-24.6h10.564v-4.9Z" transform="translate(2.842 0.296)" fill="#222325"/>
        <path id="パス_83" data-name="パス 83" d="M268.483,48.574V40.24h11.7V35.469h-11.7V28.874h15.541v-4.9H262.67v29.5h21.923v-4.9Z" transform="translate(3.247 0.296)" fill="#222325"/>
        <path id="パス_84" data-name="パス 84" d="M308.679,41.422a9.369,9.369,0,0,0,4.117-3.084,8.486,8.486,0,0,0,1.662-5.185,8.269,8.269,0,0,0-3.076-6.649,12.07,12.07,0,0,0-7.934-2.53H291.634v29.5h5.816v-11.1h5.142l8.909,11.1h6.726ZM297.45,28.83h5.905a5.541,5.541,0,0,1,3.8,1.207A3.986,3.986,0,0,1,308.5,33.2a3.928,3.928,0,0,1-1.341,3.114,5.551,5.551,0,0,1-3.8,1.206H297.45Z" transform="translate(3.605 0.296)" fill="#222325"/>
        <path id="パス_85" data-name="パス 85" d="M346.336,28.03c-3.158-2.692-7.405-4.057-12.628-4.057H323.5v29.5h10.2c5.192,0,9.435-1.388,12.6-4.124a13.508,13.508,0,0,0,4.8-10.669,13.4,13.4,0,0,0-4.776-10.652m-17.018.888h4.342c3.544,0,6.383.9,8.429,2.668a8.939,8.939,0,0,1,3.067,7.1,9.139,9.139,0,0,1-3.1,7.12,12.211,12.211,0,0,1-8.4,2.772h-4.342Z" transform="translate(3.999 0.296)" fill="#222325"/>
        <rect id="長方形_94" data-name="長方形 94" width="5.815" height="29.502" transform="translate(362.653 24.269)" fill="#222325"/>
        <path id="パス_86" data-name="パス 86" d="M394.219,23.974l-8.742,19.411-8.743-19.411h-6.511l14.147,29.98h2.215l14.15-29.98Z" transform="translate(4.576 0.296)" fill="#222325"/>
        <path id="パス_87" data-name="パス 87" d="M412.429,48.574V40.24h11.7V35.469h-11.7V28.874H427.97v-4.9H406.614v29.5h21.923v-4.9Z" transform="translate(5.026 0.296)" fill="#222325"/>
        <path id="パス_88" data-name="パス 88" d="M21.846,6.116,46.772,0,35.045,55.2Z" transform="translate(0.27 0)" fill="#d40019"/>
        <path id="パス_89" data-name="パス 89" d="M70.053,17.376,59.675,54.185,50.9,7.051Z" transform="translate(0.629 0.087)" fill="#d40019"/>
        <path id="パス_90" data-name="パス 90" d="M16.58,14.147,9.516,52.185,0,30.046Z" transform="translate(0 0.175)" fill="#d40019"/>
        <path id="パス_91" data-name="パス 91" d="M47.964,25.871l9.536,43.9L37.19,77.721Z" transform="translate(0.46 0.32)" fill="#d40019"/>
        <path id="パス_92" data-name="パス 92" d="M69.5,31.4l5.685,18.579L63.816,60.213Z" transform="translate(0.789 0.388)" fill="#d40019"/>
        <path id="パス_93" data-name="パス 93" d="M20.8,26.078,31.9,73.641,10.683,65.936Z" transform="translate(0.132 0.322)" fill="#d40019"/>
      </g>
    </g>
  </g>
</svg>
